/* XPM */
static char *_179b84007cd4ec6ac9712a99150bac2[] = {
/* columns rows colors chars-per-pixel */
"64 64 103 2 ",
"   c #344A5F",
".  c #3C4B5E",
"X  c #364D62",
"o  c #394E62",
"O  c #375064",
"+  c #395266",
"@  c #3A5668",
"#  c #3C586B",
"$  c #444C5D",
"%  c #4B4D5C",
"&  c #5E4C56",
"*  c #524D5A",
"=  c #5B4D58",
"-  c #5A515C",
";  c #634C56",
":  c #6C4E55",
">  c #624E58",
",  c #754D52",
"<  c #7A4D52",
"1  c #6D5057",
"2  c #63535C",
"3  c #6E5259",
"4  c #7D5557",
"5  c #74545A",
"6  c #7B5558",
"7  c #455465",
"8  c #4B5665",
"9  c #415668",
"0  c #415868",
"q  c #535663",
"w  c #5A5761",
"e  c #645760",
"r  c #C74F3F",
"t  c #CB4E3F",
"y  c #D34F3D",
"u  c #DD4F3C",
"i  c #D4513F",
"p  c #DD503B",
"a  c #EC4F37",
"s  c #E24F39",
"d  c #F34F36",
"f  c #FA4F34",
"g  c #ED5137",
"h  c #E5513A",
"j  c #EB5038",
"k  c #F45036",
"l  c #FF5033",
"z  c #864E4F",
"x  c #944E4C",
"c  c #9A4E4A",
"v  c #8C504F",
"b  c #97534F",
"n  c #9E534D",
"m  c #845455",
"M  c #8A5252",
"N  c #805558",
"B  c #935451",
"V  c #A54E47",
"C  c #AA4E46",
"Z  c #A24E48",
"A  c #B54F45",
"S  c #BE4F42",
"D  c #AC5047",
"F  c #A1534D",
"G  c #AB524A",
"H  c #B55146",
"J  c #B85347",
"K  c #B35348",
"L  c #C24F41",
"P  c #C05042",
"I  c #CD5241",
"U  c #D15140",
"Y  c #526F83",
"T  c #527084",
"R  c #5F7F93",
"E  c #607F93",
"W  c #5F8094",
"Q  c #628195",
"!  c #678598",
"~  c #698799",
"^  c #6C899B",
"/  c #6C899C",
"(  c #6D8A9C",
")  c #6E8B9D",
"_  c #6E8C9D",
"`  c #708D9F",
"'  c #728EA0",
"]  c #8BA3B1",
"[  c #8DA3B2",
"{  c #8FA6B3",
"}  c #90A6B3",
"|  c #91A7B5",
" . c #93A9B6",
".. c #95AAB7",
"X. c #97ABB9",
"o. c #97ACB9",
"O. c #98ADBA",
"+. c #9BAFBC",
"@. c #A3B5C1",
"#. c #A4B6C2",
"$. c #D2DBE1",
"%. c #D6DEE3",
"&. c white",
/* pixels */
"&.&.&.&.&.&.&.&.&.&.&.&.&.&.&.&.&.&.&.&.&.&.&.&.&.&.&.&.&.&.&.&.&.&.&.&.&.&.&.&.&.&.&.&.&.&.&.&.&.&.&.&.&.&.&.&.&.&.&.&.&.&.&.&.",
"&.&.&.&.&.&.&.&.&.&.&.&.&.&.&.&.&.&.&.&.&.&.&.&.&.&.&.&.&.&.&.&.&.&.&.&.&.&.&.&.&.&.&.&.&.&.&.&.&.&.&.&.&.&.&.&.&.&.&.&.&.&.&.&.",
"&.&.&.%.@.X.X.X.X.X.X.X.X.X........... . . .| |  . . . .| | | | | | | | | } { { { { { { { { [ [ [ [ [ [ [ [ ] ] ] ] ] o.$.&.&.&.",
"&.&.%.' ' ` ` ` ` ` _ _ ( ( ( ( ( ( ( ( ( ( ( ^ ^ ^ ^ ^ ~ ~ ~ ~ ~ ~ ~ ! ! ! ! ! ! ! ! ! ! ! ! Q Q Q Q Q Q Q Q Q Q Q Q W Q $.&.&.",
"&.&.#.' ' ` ` ` ` ` _ _ ( ( ( ( ( ( ( ( ( ( ( ^ ^ ^ ^ ^ ~ ~ ~ ~ ~ ~ ~ ! ! ! ! ! ! ! ! ! ! ! Q Q Q Q Q Q Q Q Q Q Q Q Q Q R O.&.&.",
"&.&.+.' ' ` ` ` ` ` _ _ ( ( ( ( ( ( ( ( ( ( ( ^ ^ ^ ^ ^ ~ ~ ~ ~ ~ ~ ~ ! ! ! ! ! ! ! ! ! ! ! Q Q Q Q Q Q Q Q Q Q Q Q W Q R { &.&.",
"&.&.+.' ' ` ` _ ( ( ( ( ( ( ( ( ( ( ( ^ ^ ^ ^ ~ ~ ~ ~ ~ ~ ~ ~ ~ ! ! ! ! ! ! ! ! ! ! ! ! ! Q Q Q Q Q Q Q E E E E E W Q Q R { &.&.",
"&.&.+.' ' ` ~ # # # # # @ @ @ @ @ @ @ @ @ @ @ + + + + + + + + + + + + O O X X X X X X X X X X X X X X             Y Q Q R { &.&.",
"&.&.+.' ' ` ~ # # # # # @ @ @ @ @ @ @ @ @ @ @ @ + + + + + + + + + + o O X X X X X X X X X X X X X X X             Y Q Q R { &.&.",
"&.&.+.' ' ` ~ # # # # # @ @ @ @ @ @ @ @ @ @ @ @ + + + + + + + + + + + O X X X X X X X X X X X X X X X             Y Q Q R { &.&.",
"&.&.+.' ' ` ~ # # # # # @ @ @ @ @ @ @ @ @ @ + + + + + + + + + + + + + O X X X X X X X X X X X X X X X             Y Q Q R { &.&.",
"&.&.+.' ' ` ~ # # # # # @ @ w 8 @ @ @ @ @ @ + + + + + + + + + + + + + O O X X X X X X X X X X % % X X             Y Q Q R { &.&.",
"&.&.+.' ' ` ~ # # # # # @ @ U k B @ @ @ @ @ @ @ + + + + + + + + + + + O O X X X X X X X X o x k L X X             Y Q Q R { &.&.",
"&.&.+.' ' ` ~ # # # # # @ 4 l l l p 3 @ @ @ @ @ + + + + + + + + + + + O O X X X X X X X , s l l l , X             Y Q Q R { &.&.",
"&.&.+.' ' ` ~ # # # # # 9 j l l l l H @ @ @ @ @ + + + + + + + + + + + O O X X X X X X X L l l l l s .             Y Q Q R { &.&.",
"&.&.+.' ' ` ~ # # # # # B l l l l l w @ @ @ @ @ + + + + + + + + + + + O O O X X X X X X = l l l l l z             Y Q Q R { &.&.",
"&.&.+.' ' ` ~ # # # # 9 g l l l l K @ @ @ + + + + + + + + + + + + + + O O X X X X X X X X S l l l l h .           Y Q Q R { &.&.",
"&.&.+.' ' ` ~ # # # # B l l l l l q @ @ @ @ + + + + + + + + + + + + + O X X X X X X X X X * l l l l l z           Y Q Q R { &.&.",
"&.&.+.' ' ` ~ # # # # h l l l l G @ @ @ @ @ @ @ + + + + + + + + + + + O X X X X X X X X X X A l l l l y           Y Q Q R { &.&.",
"&.&.+.' ' ` ~ # # # 5 l l l l l w @ @ @ @ @ @ @ + + + + + + + + + + + O X X X X X X X X X X & l l l l l >         Y Q Q R { &.&.",
"&.&.+.' ' ` ~ # # # J l l l l i @ @ @ @ @ @ @ @ + + + + + + + + + + + O O X X X X X X X X X X p l l l l C         Y Q Q R { &.&.",
"&.&.+.' ' ` ~ # # 0 k l l l l M @ @ @ @ @ @ @ @ + + + + + + + + + + + O O X X X X X X X X X X x l l l l a         Y Q Q R { &.&.",
"&.&.+.' ' ` ~ # # 3 l l l l l 8 @ @ @ 8 3 3 3 3 3 3 3 3 3 3 3 3 1 1 1 1 1 : : : : : : $ X X X % l l l l l &       Y Q Q R { &.&.",
"&.&.+.' ' ` ~ # # F l l l l U @ @ @ @ 5 l l l l l l l l l l l l l l l l l l l l l l l , X X X X u l l l l x       Y Q Q R { &.&.",
"&.&.+.' ' ` ~ # # I l l l l F @ @ @ @ 5 l l l l l l l l l l l l l l l l l l l l l l l , X X X X C l l l l S       Y W W R { &.&.",
"&.&.+.' ' ` ~ # # k l l l l 6 @ @ @ @ 5 l l l l l l l l l l l l l l l l l l l l l l l , X X X X z l l l l s       Y Q W R { &.&.",
"&.&.+.' ' ` ~ # 8 l l l l l w @ @ @ @ 5 l l l l l l l l l l l l l l l l l l l l l l l , X X X X & l l l l l .     Y Q Q R { &.&.",
"&.&.+.' ' ` ~ # e l l l l l 7 @ @ @ @ q M M M l l l l l n M M M M M j l l l l A z z z * X X X X % l l l l l %     Y Q Q R { &.&.",
"&.&.+.' ' ` ~ # 5 l l l l l @ @ @ @ @ @ @ @ 7 l l l l l - + + + + + p l l l l z X X X X X X X X . l l l l l ;     Y Q Q R { &.&.",
"&.&.+.' ' ` ~ # N l l l l k @ @ @ @ @ @ @ @ 7 l l l l l - + + + + + p l l l l z X X X X X X X X X l l l l l :     Y W Q R { &.&.",
"&.&.+.' ' ` ~ # m l l l l h @ @ @ @ @ @ @ @ 7 l l l l l - + + + + + p l l l l z X X X X X X X X X a l l l l ,     Y Q Q R { &.&.",
"&.&.+.' ' ` ~ # M l l l l h @ @ @ @ @ @ @ @ 7 l l l l l - + + + + + p l l l l z X X X X X X X X X j l l l l <     Y Q Q R { &.&.",
"&.&.+.' ' ` ~ # m l l l l g @ @ @ @ @ @ @ @ 7 l l l l l - + + + + + p l l l l z X X X X X X X X X k l l l l ,     Y Q Q R { &.&.",
"&.&.+.' ' ` ~ # N l l l l k @ @ @ @ @ @ @ @ 7 l l l l l - + + + + + p l l l l z X X X X X X X X   l l l l l :     Y Q Q R { &.&.",
"&.&.+.' ' ` ~ # 5 l l l l l @ @ @ @ @ @ @ @ 7 l l l l l - + + + + + p l l l l z X X X X X X X X $ l l l l l ;     Y Q Q R { &.&.",
"&.&.+.' ' ` ~ # e l l l l l 8 @ @ @ @ @ @ @ 7 l l l l l - + + + + + p l l l l z X X X X X X X X % l l l l l *     Y Q Q R { &.&.",
"&.&.+.' ' ` ~ # q l l l l l - @ @ @ @ @ @ @ 7 l l l l l - + + + + + u f f l l z X X X X X X X X > l l l l l .     Y Q Q R { &.&.",
"&.&.+.' ' ` ~ # # l l l l l 6 @ @ @ @ @ @ @ 7 l l l l l - + + + + + u f l l l z X X X X X X X X z l l l l a       Y Q Q R { &.&.",
"&.&.+.' ' ` ~ # # i l l l l n @ @ @ @ @ @ @ 7 l l l l l - + + + + + p f l l l v X X X X X X X X V l l l l t       Y Q Q R { &.&.",
"&.&.+.' ' ` ~ # # K l l l l I @ @ @ @ @ @ @ 7 l l l l l - + + + + + i l l l l L > x x X X X X X y l l l l V       Y Q Q R { &.&.",
"&.&.+.' ' ` ~ # # N l l l l k 9 @ @ @ @ @ @ 7 l l l l l - + + + + + H l l l l l l l j X X X X $ l l l l l ,       Y Q Q R { &.&.",
"&.&.+.' ' ` ~ # # q l l l l l 5 @ @ @ @ @ @ 7 l l l l l - + + + + + 1 l l l l l l l l > X X X < l l l l l $       Y Q Q R { &.&.",
"&.&.+.' ' ` ~ # # # i l l l l H @ @ @ @ @ @ 7 l l l l l - + + + + + + P l l l l l l l Z X X X L l l l l r         Y Q Q R { &.&.",
"&.&.+.' ' ` ~ # # # B l l l l k 7 @ @ @ @ @ 7 l l l l l - + + + + + + + D l l l l l y , X X % f l l l l z         Y Q Q R { &.&.",
"&.&.+.' ' ` ~ # # # 8 l l l l l B @ @ @ @ @ @ 2 2 2 2 2 + + + + + + + O O % < M , * X X X X c l l l l k .         Y Q Q R { &.&.",
"&.&.+.' ' ` ~ # # # # K l l l l g 9 @ @ @ @ @ @ + + + + + + + + + + + O O X X X X X X X X $ d l l l l Z           Y Q Q R { &.&.",
"&.&.+.' ' ` ~ # # # # w l l l l f b @ @ @ @ @ @ + + + + + + + + + + o X O X X X X X X X X Z l l l l f %           Y Q Q R { &.&.",
"&.&.+.' ' ` ~ # # # # # K l l l l k 7 @ @ @ @ @ + + + + + + + + + + o X O X X X X X X X % k l l l l V             Y Q Q R { &.&.",
"&.&.+.' ' ` ~ # # # # # q l l l l l F @ @ @ @ @ + + + + + + + + + + o X X X X X X X X X C l l l l k $             Y W W R { &.&.",
"&.&.+.' ' ` ~ # # # # # @ B l l l l G @ @ @ @ @ + + + + + + + + + + o X X X X X X X X X A l l l l z X             Y Q W R { &.&.",
"&.&.+.' ' ` ~ # # # # # @ @ p l i 2 @ @ @ @ @ @ + + + + + + + + + + + O O O X X X X X X X : u l y   X             Y Q Q R { &.&.",
"&.&.+.' ' ` ~ # # # # # @ @ 2 B @ @ @ @ @ @ @ @ + + + + + + + + + + + O O O X X X X X X X X o x = X X             Y Q Q R { &.&.",
"&.&.+.' ' ` ~ # # # # # @ @ @ @ @ @ @ @ @ + + + + + + + + + + + + + + O O X X X X X X X X X X X X X X             Y Q Q R { &.&.",
"&.&.+.' ' ` ~ # # # # # @ @ @ @ @ @ @ @ @ + + + + + + + + + + + + + + O O X X X X X X X X X X X X X X             Y W Q R { &.&.",
"&.&.+.' ' ` ~ # # # # # @ @ @ @ @ @ @ @ @ @ + + + + + + + + + + + + + O O X X X X X X X X X X X X X X             Y Q Q R { &.&.",
"&.&.+.' ' ` ~ # # # # # @ @ @ @ @ @ @ @ @ @ @ @ + + + + + + + + + + + O O X X X X X X X X X X X X X X             Y Q Q R { &.&.",
"&.&.+.' ' ` ~ # # # # # # # # # # # @ @ @ @ @ @ @ @ @ + @ @ @ + + + + + + + + + O O O o X X X X X X X X X X X     T Q Q R { &.&.",
"&.&.+.' ' ` ` ` ` ` _ _ ( ( ( ( ( ( ( ( ( ( ( ^ ~ ~ ^ ^ ~ ~ ~ ~ ~ ~ ~ ! ! ! ! ! ! ! ! ! ! ! Q Q Q Q Q Q Q Q Q Q Q Q Q Q R { &.&.",
"&.&.+.' ' ` ` ` ` ` _ _ ( ( ( ( ( ( ( ( ( ( ( ^ ^ ^ ^ ^ ~ ~ ~ ~ ~ ~ ~ ! ! ! ! ! ! ! ! ! ! ! ! ! Q Q Q Q Q Q Q Q Q Q Q Q R { &.&.",
"&.&.#.' ' ` ` ` ` ` _ _ ( ( ( ( ( ( ( ( ( ( ( ^ ^ ^ ^ ^ ~ ~ ~ ~ ~ ~ ~ ! ! ! ! ! ! ! ! ! ! ! ! ! Q Q Q Q Q Q Q Q Q Q Q Q R O.&.&.",
"&.&.%.' ' ` ` ` ` ` _ _ ( ( ( ( ( ( ( ( ( ( ( ^ ^ ^ ^ ^ ~ ~ ~ ~ ~ ~ ~ ! ! ! ! ! ! ! ! ! ! ! Q ! Q Q Q Q Q Q Q Q Q Q Q Q Q $.&.&.",
"&.&.&.%.@.X.X.X.X.X.X.X.X.X........... . . . . . . . . .| | | | | | | | | } { { { { { { { { { { [ [ [ [ [ [ ] ] ] ] ] o.$.&.&.&.",
"&.&.&.&.&.&.&.&.&.&.&.&.&.&.&.&.&.&.&.&.&.&.&.&.&.&.&.&.&.&.&.&.&.&.&.&.&.&.&.&.&.&.&.&.&.&.&.&.&.&.&.&.&.&.&.&.&.&.&.&.&.&.&.&.",
"&.&.&.&.&.&.&.&.&.&.&.&.&.&.&.&.&.&.&.&.&.&.&.&.&.&.&.&.&.&.&.&.&.&.&.&.&.&.&.&.&.&.&.&.&.&.&.&.&.&.&.&.&.&.&.&.&.&.&.&.&.&.&.&."
};
