<?xml version="1.0" encoding="utf-8"?>
<!-- Generator: Adobe Illustrator 22.0.2, SVG Export Plug-In . SVG Version: 6.00 Build 0)  -->
<svg version="1.1"
	 id="svg5453" inkscape:version="0.91 r13725" sodipodi:docname="graph2d-box.svg" xmlns:cc="http://creativecommons.org/ns#" xmlns:dc="http://purl.org/dc/elements/1.1/" xmlns:inkscape="http://www.inkscape.org/namespaces/inkscape" xmlns:rdf="http://www.w3.org/1999/02/22-rdf-syntax-ns#" xmlns:sodipodi="http://sodipodi.sourceforge.net/DTD/sodipodi-0.dtd" xmlns:svg="http://www.w3.org/2000/svg"
	 xmlns="http://www.w3.org/2000/svg" xmlns:xlink="http://www.w3.org/1999/xlink" x="0px" y="0px" viewBox="0 0 32 32"
	 style="enable-background:new 0 0 32 32;" xml:space="preserve">
<style type="text/css">
	.st0{fill:#4D4D4D;}
	.st1{fill:#FF0000;}
</style>
<sodipodi:namedview  bordercolor="#666666" borderlayer="true" borderopacity="1.0" fit-margin-bottom="0" fit-margin-left="0" fit-margin-right="0" fit-margin-top="0" id="base" inkscape:current-layer="layer1" inkscape:cx="11.858457" inkscape:cy="13.316889" inkscape:document-units="px" inkscape:guide-bbox="true" inkscape:object-nodes="true" inkscape:pageopacity="0" inkscape:pageshadow="2" inkscape:showpageshadow="false" inkscape:snap-bbox="true" inkscape:snap-global="true" inkscape:window-height="751" inkscape:window-maximized="1" inkscape:window-width="1280" inkscape:window-x="0" inkscape:window-y="0" inkscape:zoom="12.933172" pagecolor="#ffffff" showgrid="true" showguides="true">
	<inkscape:grid  id="grid4063" type="xygrid"></inkscape:grid>
	<sodipodi:guide  id="guide4280" orientation="28,0" position="4,24"></sodipodi:guide>
	<sodipodi:guide  id="guide4282" orientation="0,28" position="13,4"></sodipodi:guide>
	<sodipodi:guide  id="guide4284" orientation="-28,0" position="28,25"></sodipodi:guide>
	<sodipodi:guide  id="guide4286" orientation="0,-28" position="15,28"></sodipodi:guide>
</sodipodi:namedview>
<path class="st0" d="M5,4H4v23c0.3,0,0.5,0,1,0V4z"/>
<path class="st0" d="M5,27c-0.5,0-0.8,0-1,0v1h1h23v-1H5z"/>
<path class="st1" d="M27,27h1V4c-0.3,0-0.7,0-1,0V27z"/>
<path class="st0" d="M27,3H4v1h23c0.3,0,0.7,0,1,0V3H27z"/>
<path id="path4156" inkscape:connector-curvature="0" class="st0" d="M19,4v2h1V4H19z"/>
<path id="path4156-5" inkscape:connector-curvature="0" class="st0" d="M11,4v2h1V4H11z"/>
<path id="path4156-7" inkscape:connector-curvature="0" class="st0" d="M5,11v1h2v-1H5z"/>
<path id="path4156-7-6" inkscape:connector-curvature="0" class="st0" d="M5,19v1h2v-1H5z"/>
<path id="path4156-7-5" inkscape:connector-curvature="0" class="st1" d="M25,11v1h2v-1H25z"/>
<path id="path4156-7-5-5" inkscape:connector-curvature="0" class="st1" d="M25,19v1h2v-1H25z"/>
<path id="path4156_1_" inkscape:connector-curvature="0" class="st0" d="M19,25v2h1v-2H19z"/>
<path id="path4156-5_1_" inkscape:connector-curvature="0" class="st0" d="M11,25v2h1v-2H11z"/>
<line class="st0" x1="25.6" y1="4" x2="28.3" y2="4"/>
<line class="st0" x1="7" y1="27" x2="3" y2="27"/>
</svg>
