<?xml version="1.0" encoding="UTF-8" standalone="no"?>
<svg
   xmlns:dc="http://purl.org/dc/elements/1.1/"
   xmlns:cc="http://creativecommons.org/ns#"
   xmlns:rdf="http://www.w3.org/1999/02/22-rdf-syntax-ns#"
   xmlns:svg="http://www.w3.org/2000/svg"
   xmlns="http://www.w3.org/2000/svg"
   xmlns:sodipodi="http://sodipodi.sourceforge.net/DTD/sodipodi-0.dtd"
   xmlns:inkscape="http://www.inkscape.org/namespaces/inkscape"
   viewBox="0 0 24 24"
   id="svg2"
   version="1.1"
   inkscape:version="0.91 r13725"
   sodipodi:docname="transform-browse.svg">
  <metadata
     id="metadata10">
    <rdf:RDF>
      <cc:Work
         rdf:about="">
        <dc:format>image/svg+xml</dc:format>
        <dc:type
           rdf:resource="http://purl.org/dc/dcmitype/StillImage" />
      </cc:Work>
    </rdf:RDF>
  </metadata>
  <sodipodi:namedview
     pagecolor="#ffffff"
     bordercolor="#666666"
     borderopacity="1"
     objecttolerance="10"
     gridtolerance="10"
     guidetolerance="10"
     inkscape:pageopacity="0"
     inkscape:pageshadow="2"
     inkscape:window-width="1280"
     inkscape:window-height="751"
     id="namedview8"
     showgrid="false"
     inkscape:zoom="21.087891"
     inkscape:cx="12"
     inkscape:cy="12"
     inkscape:window-x="0"
     inkscape:window-y="0"
     inkscape:window-maximized="1"
     inkscape:current-layer="svg2" />
  <defs
     id="defs3051">
    <style
       type="text/css"
       id="current-color-scheme">
      .ColorScheme-Text {
        color:#4d4d4d;
      }
      </style>
  </defs>
  <path
     style="color:#4d4d4d;fill:currentColor;fill-opacity:1;stroke:none"
     d="M 15.126982,3.0038504 C 14.505569,3.0415274 14.080397,3.4316667 13.781275,3.9145002 13.454921,2.727961 11.142268,2.6537403 10.679705,4.3355534 10.316237,3.9442109 9.8522199,3.6732291 9.2675918,3.7147448 l -0.023437,0 C 8.175073,3.8083685 7.418488,4.7485269 7.6015719,5.7788845 L 8.5136836,11.09003 C 8.1684365,10.853092 7.749294,10.446909 7.4414152,10.312551 6.7279278,10.001111 6.0748866,9.9620159 5.5488321,10.112795 c -1.0521011,0.301416 -1.367191,1.28666 -1.367191,1.28666 L 4,11.910594 4.4550793,12.221977 c 1.0044804,0.660697 2.0235654,2.262292 2.9863359,3.754228 0.4813889,0.745932 0.9608876,1.451139 1.5058633,2.021055 0.5449754,0.569989 1.1629055,1.007884 1.9941455,1.002694 l 0.01367,0 c 2.333439,-0.0012 4.666579,2.29e-4 7.000018,0 l 0.181642,0 0.02344,-0.66781 c 0,0 0.06423,-1.240581 0.181641,-2.710407 0.11744,-1.469828 0.299423,-3.184207 0.501955,-3.977484 l 1.095702,-4.2869086 c 0.315654,-1.1777963 -0.646459,-2.3108801 -1.892582,-2.2208108 -0.382441,0.021326 -0.720257,0.1853211 -1.003909,0.399511 l 0.02148,-0.6443093 C 17.135853,3.8156678 16.231546,2.9343257 15.126982,3.0038504 Z m -2.873055,0.708936 0,0.00196 c 0.580564,-0.035544 1.138982,0.454028 1.162114,1.0203196 l 0.27539,4.9096759 c 0.01547,0.2776719 0.192309,0.2743014 0.205079,0.0235 l 0.25,-4.9331766 c 0.02138,-0.52179 0.490357,-0.9900037 1.025394,-1.0222779 0.618961,-0.039099 1.204053,0.5308617 1.164065,1.133906 l -0.273438,5.3973186 c -0.0082,0.162152 0.03913,0.241965 0.08984,0.04504 l 0.935552,-3.6210561 c 0.10664,-0.4444456 0.536166,-0.7964331 1.00391,-0.8225225 0.691479,-0.049763 1.315787,0.6800733 1.140628,1.3336615 L 18.136756,11.46604 c -0.439844,1.722894 -0.661734,6.018016 -0.687502,6.53122 L 11,18 11,18 C 8.8834892,17.97856 7.336046,13.247872 4.8652366,11.622711 c 0,0 0.8905306,-2.5556514 4.5390744,0.998777 0,0 0.025599,-0.118762 0.068359,-0.287883 C 9.445963,12.247095 9.429444,12.155517 9.425795,12.065306 L 8.3320425,5.6672565 C 8.2291901,5.0883825 8.7119638,4.4762864 9.3125138,4.4236808 c 0.545815,-0.038388 1.0837052,0.3830307 1.1621122,0.91065 l 0.79883,4.664878 c 0.03291,0.1925072 0.264814,0.1421962 0.250001,-0.1096702 L 11.228535,4.8466924 c -0.03692,-0.5585428 0.451921,-1.0999967 1.025392,-1.133906 z"
     class="ColorScheme-Text"
     id="path6"
     inkscape:connector-curvature="0" />
</svg>
