<?xml version="1.0" encoding="UTF-8" standalone="no"?>
<!-- Created with Inkscape (http://www.inkscape.org/) -->

<svg
   xmlns:dc="http://purl.org/dc/elements/1.1/"
   xmlns:cc="http://creativecommons.org/ns#"
   xmlns:rdf="http://www.w3.org/1999/02/22-rdf-syntax-ns#"
   xmlns:svg="http://www.w3.org/2000/svg"
   xmlns="http://www.w3.org/2000/svg"
   xmlns:xlink="http://www.w3.org/1999/xlink"
   xmlns:sodipodi="http://sodipodi.sourceforge.net/DTD/sodipodi-0.dtd"
   xmlns:inkscape="http://www.inkscape.org/namespaces/inkscape"
   width="24"
   height="24"
   id="svg3869"
   version="1.1"
   inkscape:version="0.91 r13725"
   sodipodi:docname="graph2d-spline.svg">
  <defs
     id="defs3871">
    <clipPath
       id="clipPath4160"
       clipPathUnits="userSpaceOnUse">
      <rect
         y="1023.3622"
         x="7"
         height="1"
         width="1"
         id="rect4162"
         style="opacity:1;fill:#f2f2f2;fill-opacity:1;stroke:none;stroke-opacity:1" />
    </clipPath>
    <linearGradient
       gradientTransform="translate(0,-1.9999941)"
       inkscape:collect="always"
       xlink:href="#linearGradient4021-3"
       id="linearGradient4123"
       gradientUnits="userSpaceOnUse"
       x1="3"
       y1="1045.3622"
       x2="15"
       y2="1045.3622" />
    <linearGradient
       id="linearGradient4021-3">
      <stop
         id="stop4023-0"
         offset="0"
         style="stop-color:#b3b3b3;stop-opacity:1;" />
      <stop
         id="stop4025-2"
         offset="1"
         style="stop-color:#f2f2f2;stop-opacity:1;" />
    </linearGradient>
    <clipPath
       id="clipPath4160-8"
       clipPathUnits="userSpaceOnUse">
      <rect
         y="1023.3622"
         x="7"
         height="1"
         width="1"
         id="rect4162-9"
         style="opacity:1;fill:#f2f2f2;fill-opacity:1;stroke:none;stroke-opacity:1" />
    </clipPath>
  </defs>
  <sodipodi:namedview
     id="base"
     pagecolor="#ffffff"
     bordercolor="#666666"
     borderopacity="1.0"
     inkscape:pageopacity="0.0"
     inkscape:pageshadow="2"
     inkscape:zoom="29.48"
     inkscape:cx="9.3850542"
     inkscape:cy="12.30253"
     inkscape:document-units="px"
     inkscape:current-layer="layer1-1"
     showgrid="true"
     fit-margin-top="0"
     fit-margin-left="0"
     fit-margin-right="0"
     fit-margin-bottom="0"
     inkscape:window-width="1280"
     inkscape:window-height="751"
     inkscape:window-x="0"
     inkscape:window-y="0"
     inkscape:window-maximized="1"
     inkscape:showpageshadow="false"
     inkscape:snap-bbox="true"
     inkscape:object-nodes="true">
    <inkscape:grid
       type="xygrid"
       id="grid4132" />
    <sodipodi:guide
       position="4,18"
       orientation="18,0"
       id="guide4138" />
    <sodipodi:guide
       position="5,3"
       orientation="0,18"
       id="guide4140" />
    <sodipodi:guide
       position="20,2.0000174"
       orientation="-18,0"
       id="guide4142" />
    <sodipodi:guide
       position="2,21"
       orientation="0,-18"
       id="guide4144" />
    <sodipodi:guide
       position="3,19.000017"
       orientation="16,0"
       id="guide4146" />
    <sodipodi:guide
       position="2,4"
       orientation="0,16"
       id="guide4148" />
    <sodipodi:guide
       position="21,20"
       orientation="-16,0"
       id="guide4150" />
    <sodipodi:guide
       position="2,20"
       orientation="0,-16"
       id="guide4152" />
  </sodipodi:namedview>
  <metadata
     id="metadata3874">
    <rdf:RDF>
      <cc:Work
         rdf:about="">
        <dc:format>image/svg+xml</dc:format>
        <dc:type
           rdf:resource="http://purl.org/dc/dcmitype/StillImage" />
        <dc:title />
      </cc:Work>
    </rdf:RDF>
  </metadata>
  <g
     inkscape:label="Capa 1"
     inkscape:groupmode="layer"
     id="layer1"
     transform="translate(-326,-532.3622)">
    <g
       transform="translate(-224.28571,-74.28568)"
       id="layer1-1"
       inkscape:label="Capa 1">
      <path
         style="color:#000000;font-style:normal;font-variant:normal;font-weight:normal;font-stretch:normal;font-size:medium;line-height:normal;font-family:sans-serif;text-indent:0;text-align:start;text-decoration:none;text-decoration-line:none;text-decoration-style:solid;text-decoration-color:#000000;letter-spacing:normal;word-spacing:normal;text-transform:none;direction:ltr;block-progression:tb;writing-mode:lr-tb;baseline-shift:baseline;text-anchor:start;white-space:normal;clip-rule:nonzero;display:inline;overflow:visible;visibility:visible;opacity:1;isolation:auto;mix-blend-mode:normal;color-interpolation:sRGB;color-interpolation-filters:linearRGB;solid-color:#000000;solid-opacity:1;fill:#da4453;fill-opacity:1;fill-rule:evenodd;stroke:none;stroke-width:1px;stroke-linecap:square;stroke-linejoin:miter;stroke-miterlimit:4;stroke-dasharray:none;stroke-dashoffset:0;stroke-opacity:1;color-rendering:auto;image-rendering:auto;shape-rendering:auto;text-rendering:auto;enable-background:accumulate"
         d="m 560.28571,618.55808 c -1.16667,0 -2.44284,0.5378 -3.47266,1.0527 -0.7531,0.3765 -1.25027,0.6818 -1.52734,0.8574 l 0,1.1914 0.27734,-0.1855 c 0,0 0.72513,-0.4837 1.69532,-0.9688 0.97018,-0.4851 2.19401,-0.9472 3.02734,-0.9472 0.33333,0 0.74189,0.1823 1.19922,0.5253 0.45733,0.343 0.94726,0.8282 1.44726,1.3282 0.5,0.5 1.01007,1.0148 1.55274,1.4218 0.54267,0.407 1.13411,0.7247 1.80078,0.7247 1.16667,0 2.44284,-0.5379 3.47266,-1.0528 0.75263,-0.3763 1.25002,-0.6817 1.52734,-0.8574 l 0,-1.1914 -0.27734,0.1855 c 0,0 -0.72513,0.4837 -1.69532,0.9688 -0.97018,0.4851 -2.19401,0.9473 -3.02734,0.9473 -0.33333,0 -0.74189,-0.1805 -1.19922,-0.5235 -0.45733,-0.343 -0.94726,-0.8301 -1.44726,-1.3301 -0.5,-0.5 -1.01007,-1.0129 -1.55274,-1.4199 -0.54267,-0.407 -1.13411,-0.7265 -1.80078,-0.7265 z"
         id="path4324"
         inkscape:connector-curvature="0" />
      <path
         style="color:#000000;font-style:normal;font-variant:normal;font-weight:normal;font-stretch:normal;font-size:medium;line-height:normal;font-family:sans-serif;text-indent:0;text-align:start;text-decoration:none;text-decoration-line:none;text-decoration-style:solid;text-decoration-color:#000000;letter-spacing:normal;word-spacing:normal;text-transform:none;direction:ltr;block-progression:tb;writing-mode:lr-tb;baseline-shift:baseline;text-anchor:start;white-space:normal;clip-rule:nonzero;display:inline;overflow:visible;visibility:visible;opacity:1;isolation:auto;mix-blend-mode:normal;color-interpolation:sRGB;color-interpolation-filters:linearRGB;solid-color:#000000;solid-opacity:1;fill:#1d99f3;fill-opacity:1;fill-rule:evenodd;stroke:none;stroke-width:1px;stroke-linecap:butt;stroke-linejoin:miter;stroke-miterlimit:4;stroke-dasharray:none;stroke-dashoffset:0;stroke-opacity:1;color-rendering:auto;image-rendering:auto;shape-rendering:auto;text-rendering:auto;enable-background:accumulate"
         d="m 563.24289,610.56058 c -0.3411,0 -0.66329,0.1277 -0.90189,0.3299 -0.2386,0.2022 -0.40199,0.4611 -0.52895,0.738 -0.25394,0.5538 -0.3775,1.2046 -0.50613,1.8293 -0.12863,0.6247 -0.26191,1.2235 -0.43763,1.6067 -0.0879,0.1916 -0.18242,0.3232 -0.26638,0.3944 -0.084,0.071 -0.14933,0.1 -0.2816,0.1 -0.12902,0 -0.19107,-0.028 -0.27589,-0.1015 -0.0849,-0.074 -0.18323,-0.2116 -0.27209,-0.41 -0.17775,-0.3969 -0.31044,-1.0129 -0.43953,-1.6478 -0.1291,-0.6348 -0.25194,-1.2864 -0.50803,-1.8371 -0.12804,-0.2753 -0.29478,-0.5342 -0.54228,-0.7282 -0.24748,-0.1939 -0.58138,-0.2994 -0.92281,-0.2713 -0.65328,0.054 -1.1199,0.5445 -1.42514,1.0933 -0.30526,0.5487 -0.49868,1.2054 -0.63932,1.8488 -0.004,0.019 -0.006,0.036 -0.01,0.055 l 1.00274,0 c 0.12581,-0.5297 0.29066,-1.0462 0.4928,-1.4096 0.22349,-0.4018 0.43624,-0.5716 0.65454,-0.5896 0.13042,-0.011 0.18263,0.01 0.25686,0.068 0.0742,0.058 0.16658,0.1772 0.25307,0.3631 0.17299,0.372 0.30488,0.9786 0.43382,1.6126 0.12893,0.6341 0.25518,1.2961 0.50803,1.8606 0.12642,0.2822 0.28711,0.5462 0.52515,0.7536 0.23803,0.2073 0.56325,0.3396 0.9076,0.3396 0.3411,0 0.66329,-0.1258 0.90189,-0.3279 0.2386,-0.2022 0.40199,-0.463 0.52895,-0.74 0.25394,-0.5538 0.37749,-1.2026 0.50613,-1.8273 0.12863,-0.6247 0.26191,-1.2254 0.43762,-1.6087 0.0879,-0.1916 0.18242,-0.3213 0.26639,-0.3924 0.084,-0.071 0.14933,-0.1015 0.2816,-0.1015 0.13227,0 0.1957,0.029 0.27779,0.1 0.082,0.07 0.17471,0.2011 0.26068,0.3924 0.17193,0.3826 0.29893,0.9831 0.42431,1.6087 0.12537,0.6256 0.25002,1.2752 0.50802,1.8312 0.12899,0.2781 0.29529,0.5405 0.53847,0.7419 0.24319,0.2014 0.56828,0.3241 0.91331,0.3241 0.34503,0 0.67103,-0.1237 0.91331,-0.3261 0.24228,-0.2023 0.40615,-0.4635 0.53276,-0.7418 0.25319,-0.5567 0.37103,-1.2065 0.4928,-1.8313 0.12178,-0.6247 0.24749,-1.2244 0.4205,-1.6047 0.0865,-0.1902 0.18141,-0.3195 0.26639,-0.3905 0.085,-0.071 0.15476,-0.1035 0.29682,-0.1035 0.28415,0 0.48296,0.1543 0.70781,0.5389 0.21185,0.3622 0.37891,0.9031 0.49471,1.4603 l 0.99513,0 c -0.006,-0.033 -0.009,-0.064 -0.0152,-0.098 -0.12789,-0.6562 -0.31427,-1.3236 -0.6374,-1.8762 -0.32313,-0.5526 -0.85497,-1.0249 -1.54502,-1.0249 -0.34503,0 -0.67102,0.1256 -0.9133,0.328 -0.24229,0.2023 -0.40616,0.4635 -0.53277,0.7418 -0.25319,0.5567 -0.37103,1.2065 -0.49281,1.8313 -0.12177,0.6247 -0.24748,1.2243 -0.4205,1.6047 -0.0865,0.1902 -0.18139,0.3195 -0.26637,0.3905 -0.0849,0.071 -0.15476,0.1015 -0.29683,0.1015 -0.14207,0 -0.21377,-0.031 -0.30064,-0.1035 -0.0869,-0.072 -0.18368,-0.2018 -0.27208,-0.3924 -0.17679,-0.381 -0.30689,-0.9789 -0.43192,-1.6028 -0.12502,-0.6238 -0.24557,-1.2729 -0.4947,-1.8273 -0.12457,-0.2772 -0.28367,-0.5368 -0.52135,-0.7399 -0.23768,-0.2032 -0.56079,-0.3319 -0.90189,-0.3319 z"
         id="path4330"
         inkscape:connector-curvature="0" />
      <path
         id="path4154"
         transform="translate(551.28571,607.64788)"
         d="m 4,3 0,6 0,1 0,5 0,1 0,1 -1,0 0,1 1,0 0,1 1,0 0,-1 13.292969,0 L 19,18 19,17.292969 19,17 18.707031,17 17.292969,17 5,17 5,15.431641 5,15.423828 5,15 l 0,-2.576172 0,-1 L 5,11 5,10 5,9 5,6 5,5.9921875 5,5 5,3 Z"
         style="opacity:1;fill:#4d4d4d;fill-opacity:1;stroke:none;stroke-width:2.79999995;stroke-miterlimit:4;stroke-dasharray:none;stroke-opacity:0.55026455"
         inkscape:connector-curvature="0"
         sodipodi:nodetypes="cccccccccccccccccccccccccccccccc" />
    </g>
  </g>
</svg>
