<?xml version="1.0" encoding="utf-8"?>
<!-- Generator: Adobe Illustrator 22.0.2, SVG Export Plug-In . SVG Version: 6.00 Build 0)  -->
<svg version="1.1"
	 id="svg3052" xmlns:cc="http://creativecommons.org/ns#" xmlns:dc="http://purl.org/dc/elements/1.1/" xmlns:rdf="http://www.w3.org/1999/02/22-rdf-syntax-ns#" xmlns:svg="http://www.w3.org/2000/svg"
	 xmlns="http://www.w3.org/2000/svg" xmlns:xlink="http://www.w3.org/1999/xlink" x="0px" y="0px" viewBox="0 0 600 600"
	 style="enable-background:new 0 0 600 600;" xml:space="preserve">
<style type="text/css">
	.st0{fill:none;stroke:#060074;stroke-width:32;stroke-miterlimit:10;}
</style>
<title  id="title930">FEM_ConstraintFlowVelocity</title>
<path class="st0" d="M174,318.5h349.6c27.8-5.9,49.7-25,56.3-49.4c10.1-37.6-18.8-78.9-52.1-83.2c-34.5-4.5-76.8,29.9-76.5,81.9"/>
<path class="st0" d="M66.4,377h343.3c27.3,5.9,48.8,25,55.3,49.4c9.9,37.6-18.4,78.9-51.2,83.2c-33.8,4.5-75.4-29.9-75.1-81.9"/>
<path class="st0" d="M5.5,257.7h353.7c28.1-5.9,50.3-25,57-49.4c10.2-37.6-19-78.9-52.7-83.2c-34.9-4.5-77.7,29.9-77.3,81.9"/>
</svg>
