<?xml version="1.0" encoding="utf-8"?>
<!-- Generator: Adobe Illustrator 22.0.2, SVG Export Plug-In . SVG Version: 6.00 Build 0)  -->
<svg version="1.1"
	 id="svg3052" xmlns:cc="http://creativecommons.org/ns#" xmlns:dc="http://purl.org/dc/elements/1.1/" xmlns:rdf="http://www.w3.org/1999/02/22-rdf-syntax-ns#" xmlns:svg="http://www.w3.org/2000/svg"
	 xmlns="http://www.w3.org/2000/svg" xmlns:xlink="http://www.w3.org/1999/xlink" x="0px" y="0px" viewBox="0 0 600 600"
	 style="enable-background:new 0 0 600 600;" xml:space="preserve">
<style type="text/css">
	.st0{stroke:#000000;}
</style>
<title  id="title930">FEM_ConstraintFlowVelocity</title>
<polygon class="st0" points="358.4,593.6 454.1,411.6 342.6,347.6 446.9,264.1 424.6,218.8 509.5,170.6 472.1,130.3 518.9,114.5 
	509.5,67.7 539,67.7 539,51.2 572.8,51.2 576.4,36.1 593.7,32.5 600.9,6.6 587.6,23.3 567.4,29 561,41.3 522.1,41.3 522.1,55.7 
	476.1,55.7 476.1,90.9 410.6,113.2 430.7,153.5 321,219.5 328.9,262 172.1,369.2 226.1,412.3 0.2,593.6 "/>
</svg>
