<?xml version="1.0" encoding="UTF-8" standalone="no"?>
<!-- Generator: Adobe Illustrator 22.0.2, SVG Export Plug-In . SVG Version: 6.00 Build 0)  -->

<svg
   version="1.1"
   id="svg3052"
   x="0px"
   y="0px"
   viewBox="0 0 600 600"
   style="enable-background:new 0 0 600 600;"
   xml:space="preserve"
   sodipodi:docname="SeismicLabWorkbench.svg"
   inkscape:version="1.3.2 (091e20e, 2023-11-25, custom)"
   xmlns:inkscape="http://www.inkscape.org/namespaces/inkscape"
   xmlns:sodipodi="http://sodipodi.sourceforge.net/DTD/sodipodi-0.dtd"
   xmlns="http://www.w3.org/2000/svg"
   xmlns:svg="http://www.w3.org/2000/svg"><defs
   id="defs1" /><sodipodi:namedview
   id="namedview1"
   pagecolor="#ffffff"
   bordercolor="#000000"
   borderopacity="0.25"
   inkscape:showpageshadow="2"
   inkscape:pageopacity="0.0"
   inkscape:pagecheckerboard="0"
   inkscape:deskcolor="#d1d1d1"
   inkscape:zoom="1.295"
   inkscape:cx="300"
   inkscape:cy="361.00386"
   inkscape:window-width="1920"
   inkscape:window-height="991"
   inkscape:window-x="-9"
   inkscape:window-y="-9"
   inkscape:window-maximized="1"
   inkscape:current-layer="svg3052" />
<style
   type="text/css"
   id="style1">
	.st0{stroke:#000000;}
</style>
<title
   id="title930">FEM_ConstraintFlowVelocity</title>
<polygon
   class="st0"
   points="358.4,593.6 454.1,411.6 342.6,347.6 446.9,264.1 424.6,218.8 509.5,170.6 472.1,130.3 518.9,114.5   509.5,67.7 539,67.7 539,51.2 572.8,51.2 576.4,36.1 593.7,32.5 600.9,6.6 587.6,23.3 567.4,29 561,41.3 522.1,41.3 522.1,55.7   476.1,55.7 476.1,90.9 410.6,113.2 430.7,153.5 321,219.5 328.9,262 172.1,369.2 226.1,412.3 0.2,593.6 "
   id="polygon1"
   style="fill:#060074;fill-opacity:1" />
</svg>
